<svg version="1.2" xmlns="http://www.w3.org/2000/svg" viewBox="0 0 200 200" width="200" height="200"><style>.a{opacity:.37;fill:#f5d645}.b{opacity:.52;fill:#b81de6}.c{opacity:.52;fill:#d42d96}.d{opacity:.99;fill:#464545}.e{opacity:1;fill:#989e45}.f{opacity:1;fill:#f4d644}.g{opacity:1;fill:#f24846}.h{opacity:1;fill:#91c746}.i{opacity:1;fill:#fed443}.j{opacity:1;fill:#467aaf}.k{opacity:1;fill:#d73087}.l{opacity:1;fill:#458dd1}.m{opacity:1;fill:#464747}.n{opacity:1;fill:#d026aa}.o{opacity:1;fill:#9240f8}.p{opacity:1;fill:#b520e8}.q{opacity:1;fill:#f2f0f0}.r{opacity:1;fill:#ca1ccb}.s{opacity:1;fill:#878c87}.t{opacity:1;fill:#c319dc}.u{opacity:1;fill:#a9aaa9}.v{opacity:1;fill:#9c3af4}.w{opacity:1;fill:#a52eef}.x{opacity:.99;fill:#01d441}.y{opacity:1;fill:#1a363a}.z{opacity:1;fill:#f8ca3e}.A{opacity:1;fill:#1b3f3f}.B{opacity:1;fill:#f4b739}.C{opacity:1;fill:#1e3545}.D{opacity:1;fill:#dae4e5}</style><path class="a" d="m49 3v-1h2v1zm-47 48v-2h1v2z"/><path class="b" d="m195 89h1v1h-1z"/><path class="c" d="m195 10h1v1h-1z"/><path class="d" d="m16 24v-8h12l-2 10-4 4h-6zm56 4v-12h4 8v20 4l-13-5z"/><path class="e" d="m44 16l6-3v2 1zm40 34v-6l4 8h-2zm-72-2l2-1 2 3v6l-4-6z"/><path class="f" d="m36 16l13-13h2l3 2-2 3-12 8zm48 24v-4l14 13-3 5zm-81 9l2-3 5 5 6 9v4l-13-13zm43 46l7-5 2 3-4 5z"/><path class="g" d="m68 10l7-1 1 7h-4-22v-1zm-58 22l-1-7 7-1v6 20l-2-3zm74 45v-27l2 2 4 16 1 7zm-53 13l-6 1-1-7h27z"/><path class="h" d="m61 7l5-2 2 5-18 5v-2l3-2zm-54 32l-2-5 5-2 4 15-2 1zm83 29l-4-16h2l5 9 2 5zm-59 22l20-6h4l-1 2-15 7-5 2z"/><path class="i" d="m55 88l5-4 2 2-7 7-2-3z"/><path class="j" d="m40 16l12-8 1 3-3 2-6 3zm44 28v-4l11 14 2 5-4 2-5-9zm-74 7l2-1 4 6v4z"/><path class="k" d="m178 28l-10-12v-6h27v1z"/><path class="l" d="m54 5l5-2 2 4-8 4-1-3zm-49 41l-2-5 4-2 5 9v2l-2 1zm34 47l15-7 1 2-2 2-7 5-5 2z"/><path class="m" d="m16 30h6l4-4 2-10h8 4 4 6 22v12l-45 24 13 6 13-11 1 1-10 13v11l10-7 11 4 6-34 13 5v4 6 27 7l-22 2-2-2h-5-4-27-8v-20-4-4-6z"/><path class="n" d="m169 37l-12-12-7-15h18v6l10 12z"/><path class="o" d="m132 90h-16v-18l9 2v6l7 4z"/><path class="p" d="m116 44v-18l16 7 15 15 10 3 38 38v1h-35l-2-15-25-23-12-8z"/><path class="q" d="m53 47l-13 11-13-6 45-24-1 7-6 34-11-4-10-4 10-13 3-4z"/><path class="r" d="m162 44l-19-17-7-10v-7h14l7 15 12 12z"/><path class="s" d="m53 47l4-3-3 4zm1 39l1-2h5l-5 4z"/><path class="t" d="m116 26v-16h20v7l7 10 19 17-5 7-10-3-15-15z"/><path class="u" d="m54 65l-10 7v-11z"/><path class="v" d="m116 72v-12h8l16 14 6 10v6h-14v-6l-7-4v-6z"/><path class="w" d="m116 60v-16h5l12 8 25 23 2 15h-14v-6l-6-10-16-14z"/><path class="x" d="m71 111l-5-3 5-6zm0 17l-5-2v-14l6 3zm0 18l-5-3v-13l5 3z"/><path class="f" d="m111 158l4-5 7-1 1 13-22 3v-3l5-1z"/><path class="y" d="m123 148l6-1v2l-3 2h-3zm4 16l6-3 3 2-8 11-2-9z"/><path class="z" d="m122 113l3-12 6 2 2 5zm-3 4l14-5v14l-9 4v-6h-6l-1-6zm3 35l1-1h3l1 13-1 1h-3z"/><path class="i" d="m71 102l11-4 21-1 22 4-3 12-3 1-35 1-13-4zm0 26l1-13 16 4 29-1 1 6h-2-8l-8 3-1 4-11 2-10-2zm0 18v-13l7 1 10 2 2 1-5 5v5l-8 2z"/><path class="A" d="m103 97v-3h6l3 1 22 6 2 14 9 4-4 33-8 2v-6l-4 1v-2l4-4-2-13-7 4-3 12-4 1 6 1v3l-1 1-7 1-4 5-2-1 5-7v-6h4l2-4 1-13h-5v-3h2 6v6l9-4v-14l-14 5v-3l3-1 11-5-2-5-6-2z"/><path class="B" d="m123 148l-6-1 4-1 3-12 7-4 2 13-4 4zm6 1l4-1v6 7l-6 3-1-13z"/><path class="C" d="m54 126v-7l9-5v-11l4-4 14-4 22-1v3l-21 1-11 4-5 6 5 3 13 4 35-1v3l-2 1-29 1-16-4-6-3v14l5 2 7 3v3l-7-1-5-3v13l5 3 6 3 8-2v-5l5-5-2-1v-3l11-2 1-4 8-3h8v3l-13 2-1 5h-6l-7 7-1 9h-5l-2 6-1 12-4 6 6-5 13-2 3-5h5l6-5 2 1-5 6-5 1v3l22-3h3l2 9-9 9-18 10-15-6-20-17-6-10-5-30zm79 28l8-2-5 11-3-2z"/><path class="D" d="m82 169l-6 5 4-6z"/><path class="m" d="m78 134v-3l10 2v3z"/><path class="q" d="m80 168l1-12 2-6h5l1-9 7-7h6l1-5 13-2h5l-1 13-2 4h-4v6l-5 7-6 5h-5l-3 5-13 2z"/><path class="x" d="m70 163l-4-2v-13l5 2z"/><path class="i" d="m70 163l1-13 8 2v3l-3 11z"/></svg>