<svg version="1.2" xmlns="http://www.w3.org/2000/svg" viewBox="0 0 1024 1024" width="1024" height="1024"><style>.a{opacity:1;fill:#00133e}.b{opacity:1;fill:#e7ebed}</style><path class="a" d="m156 234l-1-7h77l-1-25h28v-25h26v-49h27v-26h26v-23h349v23h25v26h28l-1 49h27v25h26v25h76v26h25v1 1 5 3 289 1 71 1 3 2 2 6 1l-25-1 1 55h-26v53h-28l1 26h-29v25h-26v25h-26v26h-26v24h-42v25h-51v25h-53l1 24-1 1h-104v-1l1-20v-4h-53v-25h-51v-25h-40v-24h-28l1-26h-26v-25h-27v-25h-27v-26h-28v-53h-26l1-5v-48l-25-2v-2-382-1h25v-5z"/><path class="b" d="m563 946h1v1h-1z"/><path class="b" d="m463 780h27l1 27-29 1z"/><path class="b" d="m519 182h115v145l-32 2-7-7v36l9 3v39h-29v28h29v123h-29l1 58h-29l1 60h-29v26h-28l1 27h-30v57l-5 1 1-3-5-1v4h-17l7-3-6-5 2-5h-4l-2 10v-17l2 1 1-8-3 2v-5h-27l-1-28h-29v-27h-29v-25h-29v-210h30l-1-60h28v-74h28v-44h29v-26h29v-25h29v-25h29z"/><path class="b" d="m130 253h1v1h-1z"/><path class="b" d="m893 253h1v1h-1z"/><path class="b" d="m893 260v-5h1v5z"/><path class="b" d="m893 552v-289h1v289z"/><path class="b" d="m893 624v-71h1v71z"/><path class="b" d="m893 628v-3h1v3z"/><path class="b" d="m893 632v-2h1v2z"/><path class="b" d="m130 638v-2h1v2z"/><path class="b" d="m893 638h1v1h-1z"/></svg>