<svg version="1.2" xmlns="http://www.w3.org/2000/svg" viewBox="0 0 1024 1024" width="1024" height="1024"><style>.a{opacity:.99;fill:#493726}.b{opacity:.99;fill:#100d0c}.c{opacity:1;fill:#9e2824}.d{opacity:1;fill:#070505}.e{opacity:1;fill:#262d11}.f{opacity:1;fill:#eb4f19}.g{opacity:1;fill:#fefcf7}.h{opacity:1;fill:#f1553e}.i{opacity:1;fill:#942d2b}.j{opacity:1;fill:#9d1217}.k{opacity:1;fill:#55612b}.l{opacity:1;fill:#aa0b15}.m{opacity:1;fill:#731e1f}.n{opacity:1;fill:#d32a1f}.o{opacity:1;fill:#b0322d}.p{opacity:1;fill:#f32617}.q{opacity:1;fill:#bd0d0e}.r{opacity:1;fill:#47060a}.s{opacity:1;fill:#862726}.t{opacity:1;fill:#5f191c}.u{opacity:1;fill:#d11511}.v{opacity:1;fill:#8b0a0c}.w{opacity:1;fill:#8a9642}.x{opacity:1;fill:#590508}.y{opacity:1;fill:#f63334}.z{opacity:1;fill:#1d1e13}.A{opacity:1;fill:#692c30}.B{opacity:1;fill:#7e2d2e}.C{opacity:1;fill:#22080c}.D{opacity:1;fill:#6f7837}.E{opacity:1;fill:#702628}.F{opacity:1;fill:#4c1318}.G{opacity:1;fill:#6e0305}.H{opacity:1;fill:#7c0404}.I{opacity:1;fill:#3e0c11}.J{opacity:1;fill:#2f060a}.K{opacity:1;fill:#626430}.L{opacity:1;fill:#52181c}.M{opacity:1;fill:#0f0c0b}.N{opacity:1;fill:#fcc23a}.O{opacity:1;fill:#fad65c}.P{opacity:1;fill:#faad26}.Q{opacity:1;fill:#f49115}</style><path class="a" d="m529 512v-4l21 2-1 16-19 6z"/><path class="b" d="m571 438l2-13 216 96 8 15h-20l-1-3-74-35-16-7-14-6-27-12-34-16-22-10zm-339 322l2-233 181-85 4 15-11 6-27 13-59 27-66 31-6 38v32 18 29 25 32 24 28zm290-112l4-1 2 17h-13l-1-13zm-290 152v-12l18 2v10zm87 98l-82-38-5-36 18 2 6 17 5 17z"/><path class="c" d="m617 508l21-3 14 9-12 10-25-10zm-113 85l17-5 19 4 4 24-44-12zm-194 25v-27l21 13-1 21-19-1zm21 35v-21l20 2 6 4-5 23-21-7zm-41 39l3-26 18 7v27zm122 20v-12h20v22zm20 36v-26l21 8 3 3-2 27zm24 116l2-14 15 7v7z"/><path class="d" d="m464 481v-9h14v4 20h-14v-3zm313 161v-4l20 2v180h-19l-5-39 4-26v-44zm-77 236l10-3-8 15-113 51 1 15-34 16-18-28 50-16 30-11 16-8 22-13z"/><path class="e" d="m505 462v-46h24v32 24h-24zm0 74v-24h24l1 20z"/><path class="f" d="m470 88l6-20h26l94 103-8 27-34 5-1 61-1 3-31 11-90-91-1-35 39-14z"/><path class="g" d="m504 371v-23l29 1v18z"/><path class="h" d="m478 332l3-4 23 20v23l-26 7z"/><path class="i" d="m618 488l-12-12 5-19 34 16-6 16zm-296 15l59-27 18 19-20 26-31 3zm8 41l18-10 16 9-6 9h-18zm133 4l7-11 30 14-17 16-11 3-24 11 9 6-8 9-22-6-10-10 3-16 14-8zm-101 12l19-12 19 8 2 24-15 12-27-10-6-5zm-92 94l4-23 16 6v23h-19zm162-6l22 4-1 27-21-8v-1zm-121 25v-28l20 8v1l-5 20zm-41 59l5-17 16 13-21 12zm61 28l1-21 20 8v1l1 20zm-22 89l3-2 16 5 2 16v8l-23-10z"/><path class="j" d="m449 332l27-20 10 8-5 8-3 4zm15 73l-15-29 29 4v30zm158 151l13-1 11 7-11 16-22 1-8-5zm-346 50l-7-32 19 8v24zm200-14l21-15 7 2v14l-4 11-24 1zm-64 92v-21l20 7v1l1 29h-1-20zm-40 100l20 7 1-25 20 10v20l-20 1v22l-1 28-17-6-3-2zm80 84l4-4h17l-4 16-16-3z"/><path class="k" d="m478 496v-20l27 10v17l-27-4zm51 12v-32l21 2v32z"/><path class="l" d="m476 312l8-17 68 2 26 30v47l-28 6-3-59-61-1zm-27 64v-44h29v46 2zm159 122l10-10 21 1 7 9-8 7-21 3zm-92 79l1-17 22 9 5 3-4 5-15 6zm-83 291l1-29 20 8 4 3-2 14-4 4z"/><path class="m" d="m616 544l24-12 16 12-21 11-13 1zm66 5l8-9h25l8 16-78 36-10-14 11-16zm-157 34l15-6v15l-19-4zm-195 42l1-21 21 5-1 25-20-2zm-19 48l15 1 5-20 21 7v1l-1 30-23 12-15-1-2-3zm-61 3l21-16h19l3 6-3 26h-17l-2 16h-21zm122 28h16l5-20h19v16 12l-19 4-1 21-19-7-1-1zm100 34l1-23 15 1 5 30-21 8zm-202 2l21-12h20l2 3-1 24 19 5 22 8v8 36l-20 8-20 2-1 25-3 2-26-5-1 10-26-11-6-17v-18h18l20 8 5-13 17 6v-27l-20-8-20-2zm174 56l12-4 13 4 4 8-5 16h-14zm-32 52v-16l22 7-1 29 3 29-7 25-17-8zm-82 20l-2-16h24 20v12l-24 4zm143-4v-7l20 11-1 24h-39v-15l16 3z"/><path class="n" d="m431 482l33-1v12l-41 22-31 12-13-6 20-26zm239 7l2-4 14 6 1 14-12 5zm-24 9l14-5 7 20-15 1-14-9zm-335 147v-21l19 1 1 7v21zm121 77v-22h1 20v30zm-65 59l6-21h19l1 6-1 25-20-7z"/><path class="o" d="m579 462l10-15 22 10-5 19 12 12-10 10-21-2-15-17zm-221 90l6-9 13 2 4 3-19 12zm14 204l1-26 19 7 1 3-1 20h-19z"/><path class="p" d="m564 483v-27l15 6-7 17zm96 10l10-4 5 21-8 3zm27 12l-1-14 16 7-4 3zm-230 82l-9-6 24-11-4 21zm-167 50v-27l20 8 1 6v21 28l-18-7-3-6zm143 63l-1-29 21 8 1 9-1 12zm-80 68l-1-20 12 4 8 4 1 4-6 21-14-5z"/><path class="q" d="m494 414l12-14h43l1 11v1l-21 4h-24zm10 165l12-2 9 6-4 5-17 5zm-50 109l19 1v26l-1 23-16-5-3-3v-30zm-102 59v-26l14 6-2 25-12-4zm-59 56l-3-29 20 8v27zm60 9v-36l14 5 5 3v55l-19-8v-2zm83 85l-3-29h19l1 9v15z"/><path class="r" d="m596 648l8-16h71l5 26-2 6-24 8h-18l-7-16zm118 17l18-1-4 20-17-15zm-181 31v-28h11 12l1 17-4 4zm183 32l1-12 23 8-2 40-2 8h-20v-16zm-124 23l3-3h17l-4 24-14-2zm-59 19l15-2 5 25-1 7h-19zm202 56l1-6h20v16l-16 9zm-75 18l-4-16h16zm36-1l16-3 6 14-1 2h-21zm-163 37h15l4-30 21-6 1 25v23l-41 12z"/><path class="s" d="m676 546l5-14 9 8-8 9zm-217-7l6-5 5 3-7 11zm-119 21v-8h18l4 8-8 17-10-4zm200 17l4-5 12 5 36-3h13l8 5 1 27-61 28-9-18-4-24zm-290 74v-29l19 2h3l2 7-4 23zm102 10l5-23 15 5 1 5v22l-21-8zm-102 71v-24h21l4 7-5 17zm81 28l-19-5 1-24 18 7 1 1zm-63 30l2-18 20 2 3 29-5 13-20-8zm44 57l1-25 20-2 20 9v2l-1 21h-24zm124 50l17-5h39l-16 24-19-4-3 22-25-12z"/><path class="t" d="m588 528l27-14 25 10v8l-24 12h-18l-10-8zm-196-1l31-12 36 24 4 9-29 8h-18-16l-19-8-4-3zm180 29l14-1 6 19-36 3zm-322 48v-32l19 2 7 32-4 18h-3l-1-17zm123 66v-22h19 40v22l-20-7v21h-19zm-102 38l2-16h17l21 8 2 3-2 25h-20l-16-13zm81 13v-25l20 8v25l-6-2zm40 16l1-21 19-4 20 10v26l-39-8zm-142 23v-28h20v8 32l-2 18-18-5zm222-6l21-8 21 2v36l-20 3v17h-21l-4-8 2-29zm-59 54l19-12h12l10 24v27l-20-8-22-7v-5zm-80 12l20-8v17zm19 32l1-21 19 8 3 2-3 11zm-70 2l1-10 26 5-2 17zm48 22v-8h18v16zm162 16l1-24h21v60l-20 1-1 23-18-8 1-28z"/><path class="u" d="m506 400l3-14 40-3v17zm150 144l20 2 6 3-36 13-11-7zm-184 26l11-3 14 10-21 15-8-1zm-108 182l2-25 6 2 1 1-1 26z"/><path class="v" d="m550 380l28-6-14 31-14 6-1-11v-17zm-245 175l25-11 10 8v8l-13 5zm178 12l17-16 16 7 1 2-1 17-12 2-7-2zm-96 25l15-12h15l10 10-7 16zm62 4l8-9 11 4 8 1v13l-14 5zm272 14l13-5 2 23v8h-19l-3-21zm-164 75l14-4-3 35-14-3-1-24zm-84 30v-26l15 6v21zm-19 45l2-27 16 5v16l-1 13-15-5zm-61 59v-22l20-1v12l-1 19z"/><path class="w" d="m478 451v-40l16 3 11 2v46z"/><path class="x" d="m734 605l2-5h20v22l-20 6zm-178 63l40-20 33 8 7 16v28l-4 8-37-14-2-18-22 5-14 4zm98 4l24-8 14 14 2 30h-22l-3-16h-15zm86 52l37-13v44l-39 9zm-45 10l21-6v28h-21zm-83 14l2-12h20l3 16-1 61-2 3-39-12-1-20-18-2v-26l16-5 2 19 14 2zm81 64l1-21 20-10 2 23v21l19 1 5 19-9 6-13 3-6-14-16 3zm43-8v-12h20v28h-20zm-203 26v-30h19v22zm121-24l20-2v8l-2 16h-16zm-80 63l18-1 5 17-5 7h-18z"/><path class="y" d="m486 320l61 1 3 59-1 3-40 3-3 14-12 14-16-3v-1-30-2l26-7 29-4v-18l-29-1-23-20z"/><path class="z" d="m505 486v-14h24v4 32 4h-24v-9z"/><path class="A" d="m419 457l8-3 37 10v8 9l-33 1-23-19zm279 44l4-3 74 35-29 12-40-22zm-134 23v-16h10l2 15z"/><path class="B" d="m564 456l7-18 18 9-10 15zm-137-2l37-17v27zm-46 22l27-13 23 19-32 13zm183 7l8-4 15 17-13 12h-10zm-141 32l41-22v3l1 38-6 5zm-167 19l66-31 26 21v10l-18 10-25 11-24-8zm146 46l-2-24h16l4 8-3 16zm-75-15l13-5 4 13zm286 14l22-1 10 14-31 14zm-137 26l24-1 44 12 9 18-2 2-25 11-4 1-10-12-10 7-48-27 8-6z"/><path class="C" d="m526 647l25-11-7 32h-11l-5-4zm69 101v-32l18 5 1 15-2 12zm77 80l2-16h19l3 31v13l4 22-44 18 4-52zm68 17l16-9h16l-40 26-1-11zm-143 40l14-6 7 38-30 11 4-36z"/><path class="D" d="m529 416l21-4v40l-21-4zm-51 35l27 11v10 14l-27-10v-4zm27 85l-26-8-1-29 27 4v9z"/><path class="E" d="m639 489l6-16 27 12-2 4-10 4-14 5zm48 16l11-4 9 22 40 22-24 11-8-16h-25l-9-8-5 14-20-2-16-12v-8l12-10 15-1 8-3zm-271 51h18l-14 8zm86 87l10-7 10 12-8 3zm-252 147v-5l18 5v18h-18v-8z"/><path class="F" d="m564 524l12-1 12 5v8l-16 5v15l-16 21-12-5-5-3-2-24zm-254 67l-30-26 1-18 24 8 22 10 17 8 10 4 6 5 12 61-15-5-6-4 1-25-21-5zm426 9v-24h17l4 20-1 4zm-486 22v-18l18 3 1 17zm142 26v-15l31-23 31 6 48 27 12 8 1 13-1 84-21-2-5-30v-21l-15-6-19-1-1-9 1-27-22-4zm-41 44l1-30 21 8 20 14-5 20h-16l-20-8zm-40 36l2-25 15 1 3 34-18-7zm102 68v-20l19 4v16l-19 12zm41 24h14l5-16h21l8 12 12 12v40h-21l-20-11-15-7-4-3zm-62 27l1-28 19 8v5 16zm-44 21l24-4 20 13-4 26-40-19z"/><path class="G" d="m586 555l12-11h18l6 12-17 18h-13zm-166 51l7-16 22 6 13 14-8 6-31-6zm337-10l20-3v45 4l-35 12-6-18v-8l20-6v-22zm-82 36l9-8h11l19 41-3 4-16 6-15-17zm-21 68v-8h15l3 16-18 19v23l-17 2-3-16 3-5 17-7zm-121 70v-20l15 3v15zm181 11l2-9h20v20 12h-20zm-119 47v-24l39 12-2 28-11 3-9-19z"/><path class="H" d="m348 524l31-3 13 6-15 18-13-2-16-9zm347 100l19-9 3 21h19l6 18-10 10-18 1zm-124 57l22-5 2 18v22 32l-3 3-16 5v26l-23 11-5-25v-15l-15-3v-54l20-7 1 24 14 3zm66 71l17-2v-23l18-19h22l1 26v22l-20 20-1 28-20 2-18 7zm101 12l39-9-4 26-17 11h-20v-20zm-3 62l-19-1v-21h20v16zm-162 18l22-16h17l9 19-10 32-14 6-5-17-18 1z"/><path class="I" d="m572 556v-15l16-5 10 8-12 11zm-56 2l21-13 2 24-22-9zm220 18l2-16 38 12 1 21-20 3-4-20zm-364 67l-12-61 27 10 33 14 3 4-31 23v15h-19zm312-19l9-26 28 12-7 5-19 9zm-6 40l2-6 15 17-3 3zm-46 44l4-8h18v24l-17 7zm-176 84v-30l15 5-2 29zm38 12v-17l20-3v32h-12zm127 43l11-3 2 65-16 8-7-38zm79 31l-4-22h21l1 12-8 7zm-167 26l41-12h18l-4 36-50 16z"/><path class="J" d="m747 545l29-12 1 3-1 36-38-12-2 16v24l-2 5-13 5-28-12-9 26-9 8h-71l-8 16-40 20h-12l7-32 2-2 61-28 31-14 78-36zm-5 109l35-12v69l-37 13-23-8-1 12-21 6-1-26-2-30 3-3 16-6 17 15 4-20zm-106 46v-28h18v20 8zm-41 16v-22l37 14 5 23-3 5h-20l-1-15zm79 88l1-28 20-20h21v16l-2 9-20 10-1 21h-19zm82-12l17-11 5 39-6 16h-16v-16zm-203 1l23-11 18 2 1 20v24l-22 16-21 6-4 30h-15v-50l19-8v-22zm83 20l18-7 2 22 4 16-4 52-22 13-2-65 2-28zm82 41l13-3 1 11-14 6-1-12z"/><path class="K" d="m529 472v-24l21 4v26l-21-2z"/><path fill-rule="evenodd" class="L" d="m587 496l21 2 9 10-2 6-27 14-12-5-2-15zm-337 76l6-38 25 13-1 18 30 26v27l-20-8v27l-16-6-2-7 4-18h12v-24l-19-8zm0 104v-25l20 3 1 6zm78 28l23-12 1 4v51l-20-8-1-1zm64 56l1-20 39 8 22 12 2 2v30l-12 4h-12v-16l-19-4-20-10zm122 68l-12-12h12zm-142 24l3-11 17 6 20 1v66l-24-11 4-26-20-13zm82 82l3-22 19 4-1 28zm39 18l1-23 20-1v34z"/><path class="M" d="m415 442l46-21 3-16 14 5v1 40 21h-14v-8-27l-37 17-8 3zm135-31l14-6 9 20-2 13-7 18v27 25 16l-27 21-21 13-16-7-30-14-5-3-1-38h14v3l1 29 26 8 25-4 19-6 1-16v-32-26-40zm226 161l1-36h20v104l-20-2v-45zm-262 176l1-84h13l5 4v28 54 20 30 30 50 24l5 40 18 28-45 18-192-92-58-38-5-17 26 11 25 12 23 10 18 8 40 19 24 11 17 8 25 12 21 10 18 8 21 10v-34-60-40-12-32zm-282 40v-28h18v25 5zm0 36v-24h18v8 18zm540 12l6-16h19l-7 41-200 95-1-15 113-51 8-15 8-7 14-6z"/><path class="N" d="m493 164l21-6 3-23 20 1 3 2-5 28-22 2-19 49-25-31 11-21z"/><path class="O" d="m493 164v-32l19 2 5 1-3 23zm-24 22l-20-21h31z"/><path class="P" d="m493 132v-39l23 10-4 31zm1 85l19-49 22-2 2 14-4 56-15 9z"/><path class="Q" d="m512 134l4-31 21 33-20-1zm23 32l5-28 27 33-30 9zm-17 79l15-9v23z"/></svg>